<?xml version="1.0" encoding="UTF-8" standalone="no"?>
<!-- Created with Inkscape (http://www.inkscape.org/) -->

<svg
   width="264.58334mm"
   height="167.96268mm"
   viewBox="0 0 264.58334 167.96268"
   version="1.1"
   id="svg1033"
   inkscape:version="1.3.2 (091e20e, 2023-11-25, custom)"
   sodipodi:docname="logo.svg"
   xmlns:inkscape="http://www.inkscape.org/namespaces/inkscape"
   xmlns:sodipodi="http://sodipodi.sourceforge.net/DTD/sodipodi-0.dtd"
   xmlns="http://www.w3.org/2000/svg"
   xmlns:svg="http://www.w3.org/2000/svg"
   xmlns:rdf="http://www.w3.org/1999/02/22-rdf-syntax-ns#"
   xmlns:cc="http://creativecommons.org/ns#"
   xmlns:dc="http://purl.org/dc/elements/1.1/">
  <defs
     id="defs1027">
    <linearGradient
       id="id1"
       gradientUnits="userSpaceOnUse"
       x1="2460.6299"
       y1="3774.6201"
       x2="5807.0801"
       y2="3774.6201">
      <stop
         offset="0"
         style="stop-color:#FFF212"
         id="stop7" />
      <stop
         offset="0.490196"
         style="stop-color:#F58634"
         id="stop9" />
      <stop
         offset="1"
         style="stop-color:#FFF212"
         id="stop11" />
    </linearGradient>
  </defs>
  <sodipodi:namedview
     id="base"
     pagecolor="#ffffff"
     bordercolor="#666666"
     borderopacity="1.0"
     inkscape:pageopacity="0.0"
     inkscape:pageshadow="2"
     inkscape:zoom="0.5"
     inkscape:cx="589"
     inkscape:cy="252"
     inkscape:document-units="mm"
     inkscape:current-layer="g120"
     showgrid="false"
     fit-margin-top="0"
     fit-margin-left="0"
     fit-margin-right="0"
     fit-margin-bottom="0"
     inkscape:window-width="1366"
     inkscape:window-height="697"
     inkscape:window-x="-8"
     inkscape:window-y="-8"
     inkscape:window-maximized="1"
     inkscape:showpageshadow="2"
     inkscape:pagecheckerboard="0"
     inkscape:deskcolor="#d1d1d1" />
  <metadata
     id="metadata1030">
    <rdf:RDF>
      <cc:Work
         rdf:about="">
        <dc:format>image/svg+xml</dc:format>
        <dc:type
           rdf:resource="http://purl.org/dc/dcmitype/StillImage" />
        <dc:title />
      </cc:Work>
    </rdf:RDF>
  </metadata>
  <g
     inkscape:label="Layer 1"
     inkscape:groupmode="layer"
     id="layer1"
     transform="translate(374.38125,171.18567)">
    <g
       id="g837">
      <g
         transform="matrix(0.07902728,0,0,0.07902728,-568.86739,-371.12469)"
         id="g120"
         style="clip-rule:evenodd;fill-rule:evenodd;image-rendering:optimizeQuality;shape-rendering:geometricPrecision;text-rendering:geometricPrecision">
        <path
           class="fil8"
           d="m 2461,4031 c 445,-566 1717,-261 2562,-354 300,46 641,-172 785,-473 v 337 c 0,112 -266,368 -856,368 H 3447 c -248,0 -357,21 -496,76 -203,79 -361,171 -489,359 v -313 z"
           id="path106"
           style="display:inline;fill:url(#id1)"
           inkscape:connector-curvature="0" />
        <path
           class="fil9"
           d="m 2461,2530 h 3346 v 713 c -142,265 -396,485 -787,485 H 3388 c -269,0 -387,21 -538,76 -151,54 -279,144 -389,255 z"
           id="path108"
           inkscape:connector-curvature="0"
           style="display:inline;fill:#eb1c24;fill-opacity:1" />
        <g
           id="g9"
           transform="translate(-46.872)">
          <path
             id="path112"
             style="display:inline;fill:#fefefe"
             class="fil10"
             d="m 3382.0008,2702.9975 -31.0016,26.9997 -10.9988,9.0043 -10.9987,8.9978 c -23.9999,22 -52.0027,39.9981 -88.0027,50.9981 l -14.0001,6.0029 -14.0001,6.0029 c -43,17.9999 -88.9971,32.9996 -130.9971,53.9995 -12,6 -23.0031,12.9965 -34.0031,19.9965 -31,22 -54.9992,46.0003 -66.9992,83.0003 l -2.001,7.9973 -1.0005,8.0038 -1.0004,6.9968 c -3,29 3.0015,51.004 17.0015,77.004 22,28 42.998,43.9977 77.998,49.9977 h 9.0043 c 16.9999,-1 31.9967,-1.9964 47.9967,-5.9964 l 11.0052,-3.0014 10.9987,-4.0019 10.9987,-4.0019 4.0019,-1.9944 -72.0016,155.9959 -2.0009,5.0023 -2.001,4.9959 c -34,76.9999 -88.9988,123.0011 -161.9987,167.0011 l -12.9997,8.0038 -12.9996,7.9973 c -49,28 -98.9982,55.0013 -146.9982,85.0013 l -15.0006,8.9977 -15.0006,9.0043 c -29,19 -62.0018,36.9969 -86.0017,61.9969 l -5.0024,7.0033 -4.9959,7.9973 -4.0019,11.9991 2.001,16.0011 9.9982,12.9997 11.9992,6.0028 10.9987,1.9945 c 36,-2 70.0029,-25 102.0028,-41 l 14.0002,-6.9968 14.0001,-7.0033 c 28,-14 57.0013,-28.0004 85.0013,-42.0004 l 14.0001,-6.9968 14.0001,-7.0033 c 27,-13 53.9999,-24.9981 81.9999,-36.998 49.9999,-22 100.0001,-41.9964 151,-60.9964 l 15.0006,-6.0029 c 24,-10 41.9959,-19.999 59.9959,-38.9989 l 7.0034,-9.9983 5.9963,-10.0047 24.0049,-32.9962 c -1,20 -6.0048,33.9992 -10.0048,52.9992 -2,16.9999 2.004,24.0021 22.004,32.0021 l 8.9977,1.9944 h 7.0033 c 35,0 69.9978,-0.9949 104.9978,-2.9949 l 6.9968,-1.0004 7.0033,-2.001 6.9968,-3.0014 c 15,-11 21.0003,-22.9995 28.0003,-39.9995 l 15.0006,-35.9975 5.0024,-11.9992 5.0023,-12.0057 0.994,-2.9949 -1.9944,9.9982 V 3367 c 2,17 7.9945,29.0014 15.9945,44.0014 l 3.0014,5.9963 c 10,18 18.0046,30.0055 37.0046,39.0055 l 11.9992,1.9944 c 36.9999,-10 87.9966,-50.9946 129.9965,-70.9946 l 1.0005,-1.0005 2.001,3.9954 10.9987,14.0001 c 16,17 30.9986,27.0046 51.9986,37.0046 l 14.0001,3.9954 14.0002,2.0009 c 32.9999,2 62.0041,-7.9974 91.0041,-21.9974 l 7.9973,-4.0019 3.0014,-2.001 c 14,29 28.9969,47.9992 61.9968,52.9991 l 10.0048,-1.0004 c 35,-7 60.9957,-33.0006 86.9957,-56.0006 21,-18.9999 42.0039,-36.9935 63.0039,-54.9935 l 7.9972,-6.0028 2.001,6.0028 c 15,28 32.002,45.9969 59.002,61.9969 41.9999,19 78.9998,18.0023 122.9997,5.0024 54,-22 89.9998,-55.0034 122.9998,-103.0034 22,-35.9999 36.9967,-72.996 47.9967,-114.9959 11,-56 11.005,-110.0053 -16.995,-162.0053 l -2.001,-3.9953 11.9992,-8.0039 -78.0045,-49.9976 -7.9972,5.9963 -4.0019,-1.0005 -4.9959,-0.9939 c -50.9999,-5 -101.0023,18.9967 -142.0023,47.9967 -20,16 -30.9972,27.0028 -48.9972,47.0028 -2,-32 3.9996,-62.0051 -1.0004,-93.0051 -7,-24 -20.0022,-44.9988 -32.0022,-65.9988 -19,-21.9999 -34.9974,-26.9964 -62.9973,-19.9964 -34,17 -50.0003,42.9965 -69.0002,74.9965 -17,30 -33.0028,60.9986 -47.0028,92.9985 l -5.9963,12.0057 -1.0005,1.9945 c -69.9999,-15 -143.0038,5.0033 -200.0038,48.0032 l -9.9982,8.9978 -1.0005,1.0004 -2.0009,-6.9967 -5.0024,-9.0043 -5.9963,-6.9968 c -14,-15 -32.9977,-29.999 -49.9977,-38.999 l -8.0038,-3.0014 -8.9978,-2.001 h -9.0043 c -18.9999,2 -37,9.0011 -55,16.0011 l -5.9963,2.001 -5.0024,2.0009 v -3.0014 l -2.001,-7.0034 -2.9949,-6.9968 c -12.9999,-17.9999 -37.0005,-37.0037 -56.0005,-49.0037 l -9.0043,-3.9954 c -15,-4 -24.999,-4 -38.9989,0 l -7.9973,3.9954 c -13,7 -25.0046,16.0049 -37.0046,24.0049 l -5.9963,3.9954 -6.0029,4.0019 -5.9963,4.0019 -8.0038,4.9958 4.0019,-8.9977 c 7,-16 14.0035,-31.0023 21.0035,-46.0023 23,-51 46.9941,-100.994 69.9941,-151.994 l 7.0033,-15.0006 14.0002,-31.0017 -20.003,-23.9984 c -19,-21.9999 -39.9964,-43.0043 -60.9964,-64.0043 z m 2045.3403,340.7243 v 118.3702 h 152.7002 v -118.3702 z m -522.0068,3.5508 v 156.2509 h 169.2702 v -156.2509 z" />
          <path
             id="path4"
             style="color:#000000;clip-rule:nonzero;display:inline;fill:#00aced;fill-rule:nonzero;stroke:#ffffff;stroke-width:58.967;stroke-dasharray:none;stroke-opacity:1;paint-order:stroke fill markers;image-rendering:optimizeQuality;shape-rendering:auto;text-rendering:geometricPrecision"
             d="m 3374.9975,2740.002 c -60.9999,55 -135.9974,88.9974 -213.9973,117.9974 -47,17 -79.0034,32.0033 -103.0033,48.0033 -56,37.9999 -59.9959,74.9968 -59.9959,102.9967 0,40 38.0016,77.9989 72.0016,79.9989 33.9999,2 96.9975,-7.9974 131.9975,-62.9973 -74.9999,33 -116.003,4.9965 -116.003,-21.0035 0,-21.9999 27.0055,-45.0007 80.0054,-70.0006 28,-13 87.996,-31.9952 114.996,-30.9952 l -166.0006,361.996 c -12,25.9999 -27.0006,58.0041 -56.0006,91.0041 -37.9999,43 -96.9994,87.9966 -176.9993,129.9966 -63,32.9999 -181.0011,107.0021 -208.0011,128.0021 -13.9999,9 -27.9988,23.0012 -24.9988,30.0012 3,8 16.9995,5.9976 39.9995,-5.0023 72.9999,-37 149.0036,-76.0011 227.0035,-112.0011 71.9999,-33 142.0008,-61.9976 221.0007,-90.9976 38,-15 50.9978,-31.001 63.9978,-57.001 26,-54 50.0031,-111.0012 75.0031,-167.0011 2,-6 4.9972,-11.9955 7.9972,-17.9955 22,-6 43.9988,-11.0011 65.9988,-16.0011 18,-4 22.0011,2.9965 16.0011,19.9964 -15,34 -30.0023,69.0034 -46.0023,103.0034 -17,37.9999 -35.9996,75.995 -53.9996,112.995 -6,11.9999 -5.9967,15.0006 7.0033,15.0006 33,0 67.9959,-0.9949 100.9958,-2.9949 12,-2 17.004,-6.0021 22.004,-18.0021 28,-66.9999 51.9994,-123 80.9994,-191.9999 5,-9 33.9967,-20.0021 47.9967,-18.0021 11,1 12.0043,12.0026 9.0043,19.0026 -19,45.9999 -34.9996,85.998 -53.9996,132.9979 -7,20 5.0001,36.9987 14.0001,51.9987 9,17 13.9989,25.9998 24.9989,26.9998 10.9999,1 45.0006,-24.999 70.0006,-38.999 24,-13 49.9966,-27.9953 74.9965,-44.9953 1,6 3.0024,10.995 5.0024,16.995 18,38 49.998,56.002 77.998,59.002 31.9999,3 72.0015,-14.0004 113.0015,-42.0004 12,43.9999 29.9972,66.9992 48.9972,66.9992 25,0 57.0014,-34.0007 99.0014,-70.0006 26,-22 56.9994,-48.9998 80.9994,-67.9998 9.9999,59 49.0006,102.0029 111.0005,102.0029 93,0 170.0038,-85.0006 200.0038,-193.0004 21,-75 9.9997,-143.9999 -28.0003,-177.9999 63,-48.9999 129.9984,-86.0006 215.9984,-111.0006 14.9999,-4.9999 64.9967,-22.0025 47.9967,21.9975 -19,48.9999 -147.9994,338.0025 -135.9994,362.0025 7.9999,12.9999 35.0038,16.0006 63.0038,15.0006 29,0 58.9983,-5.003 64.9983,-20.003 l 90.0037,-236.9953 c 21.9999,-11 56.0645,-12.0484 80.6854,6.4868 12.8788,7.3371 23.7646,11.6497 33.3427,13.9347 -1.8229,25.5579 -3.6503,47.397 -5.4732,74.7415 v 84.0008 c 8.9641,36.6321 31.3601,54.0085 50.6974,60.9833 3.1446,1.8277 10.3262,3.6449 23.4491,5.4797 32.682,4.5696 122.5703,-10.0521 155.3942,-14.0001 11.8607,-2.7063 16.6109,-6.9959 20.8923,-19.2706 23.9887,-68.5384 44.6351,-125.8588 69.5037,-196.4531 4.459,-9.28 32.7586,-21.976 46.8524,-20.8073 11.0399,0.3477 12.6901,11.2686 10.1094,18.4336 -16.2464,47.0431 -29.8541,87.9188 -46.0415,135.9602 -5.805,20.3789 7.1826,36.6418 17.0539,51.0832 9.9896,16.4381 15.5087,25.1287 26.5485,25.4762 11.0399,0.3477 43.4464,-27.6188 67.5747,-43.0728 21.5578,-13.3838 70.1065,-40.0585 96.1177,-58.5835 1.4038,1.3173 2.6649,2.6197 4.1719,3.9496 36.0888,31.29 75.7533,51.5507 134.9924,46.9636 -2.6075,87.0655 -42.2124,90.7195 -105.4751,67.1627 -46.7911,-10.1341 -108.543,6.3432 -84.7266,48.1732 20.4971,30.8015 184.357,61.8996 228.0564,42.8309 36.5319,-15.9411 50.392,-98.667 70.7657,-147.8874 16.856,-71.2457 7.6771,-101.9646 28.6542,-137.5296 19.5937,15.6184 43.1296,36.9447 66.1033,54.4312 l 15.4257,-37.1223 c -16.091,-22.0046 -36.0826,-52.4663 -53.058,-77.4814 -27.273,-40.7923 -45.9344,-77.3363 -69.0721,-83.8177 -17.585,-4.9258 -41.658,9.517 -66.9404,42.9551 -28.925,-33.888 -60.4667,-58.3834 -91.0499,-64.1874 -26.881,-4.7671 -62.2978,1.8927 -91.2003,28.7915 -3.7841,4.4656 -7.2441,8.0983 -10.1028,12.8231 l -1.8963,3.3807 c -1.9165,-2.3357 -4.2362,-4.675 -7.1669,-7.0753 -9.398,-6.4556 -18.7917,-12.9067 -28.1899,-19.3621 -13.5685,-9.2138 -22.6123,-9.6824 -39.2278,-2.6876 -30.2952,12.8141 -64.4669,27.8614 -93.7048,41.6146 3.4016,-10.2191 10.6182,-23.6729 14.0198,-33.892 2.6399,-6.1668 1.0518,-16.0863 -6.2317,-20.6634 -12.5703,-9.2728 -25.1403,-18.5444 -37.7108,-27.8172 -15.6242,-10.0932 -28.5418,-8.3275 -40.9869,1.4256 -14.3231,11.8678 -28.7084,22.7362 -45.0279,34.7224 -25.1409,19.0003 -68.811,39.9544 -96.0523,57.2952 2.5649,-12.3949 4.1216,-23.3127 1.4778,-28.2226 -11.9999,-24 -44.0006,-46.9997 -56.0005,-40.9999 -10.4013,4.1606 -20.5498,10.6072 -30.1386,17.5051 -5.6771,-0.933 -11.3442,-2.0495 -16.4653,-2.8837 -18.881,-2.63 -28.951,-11.7914 -47.951,-14.7914 -14,-3 -32.9981,0 -50.9981,6.0029 l 26.9998,-70.0007 c 7,-17 4.9952,-24.0036 -10.0048,-35.0036 -27,-20 -53.9994,-39.0005 -80.9994,-56.0005 -16.9999,-10 -18.9994,-10.9986 -39.9994,3.0014 -105.9999,71.9999 -216.9998,142.0003 -314.9997,220.0002 l 1.0004,-3.0014 c -8.9999,-3 -19.0012,-4.9959 -30.0012,-4.9959 -83.9999,0 -177.9964,82.9992 -211.9964,189.999 -6,21 -10.0052,41.003 -11.0052,61.003 -29,11.9999 -59.9948,27.9989 -84.9948,38.9989 -6.9999,-44.9999 5.9967,-82.002 33.9966,-155.0019 12,-31 32.0015,-63.0034 58.0015,-103.0033 26,-40 10.9989,-58.9987 -16.0011,-106.9987 -16,-27 -45.001,-4.0013 -57.001,10.9987 -27.9999,36 -61.9966,106.0026 -88.9966,170.0025 -56,-22.9999 -118.0002,-8.9998 -165.0002,14.0002 -35.9999,18 -54.0007,39.0029 -70.0006,61.0029 -31,43 -40.999,79.996 -38.999,114.9959 -15,9 -41.0014,10.001 -44.0014,2.001 -2,-7 18.0003,-53.998 28.0003,-77.9979 9,-21 19.0017,-42.0044 31.0017,-64.0044 9,-14 6.9971,-23.9975 -6.0029,-35.9975 L 3641,3112.0028 c -12.9999,-10 -21.9989,-11.0024 -38.9989,-5.0024 -31,11 -66,23.9975 -96,35.9975 4,-10 12.0011,-22.9961 16.0011,-32.9961 3,-6 1.9976,-16.0035 -5.0024,-21.0035 l -35.9975,-30.0012 c -15,-11 -28,-9.9939 -41,-0.9939 -14.9999,11 -30.0028,20.9956 -47.0027,31.9956 -27,18 -57.0013,34.9982 -85.0013,50.9982 11,-24 23.0031,-48.9961 34.0031,-73.9961 36,-81.9999 75.0011,-161.9982 112.0011,-242.9981 -23,-28 -53.005,-57.0008 -79.005,-84.0008 z m 1560.5604,78.168 c -30,0 -53.9996,23.9996 -53.9996,53.9996 0,30 23.9996,53.9995 53.9996,53.9995 29.9999,0 53.9995,-23.9995 53.9995,-53.9995 0,-30 -23.9996,-53.9996 -53.9995,-53.9996 z m 92.7762,236.714 c 8.4865,0.5773 10.0287,7.6238 6.2906,20.6177 -12.9629,34.8276 -25.8682,70.6538 -39.8295,105.5405 -8.8624,23.4393 -27.1778,43.015 -43.8182,63.1673 1.9241,-55.3329 -12.7056,-127.3239 -6.4214,-157.0421 0.5441,-4.0806 1.8159,-9.1203 2.8118,-13.7974 22.6819,-5.9024 52.9881,-11.9125 70.1053,-16.8839 4.433,-1.2643 8.0326,-1.7945 10.8614,-1.6021 z m 455.0206,4.9043 c 12.8277,-0.3349 27.0805,6.0769 34.7421,22.0367 3.6201,6.5393 6.5542,17.4881 7.6376,27.9218 1.3997,30.7821 -9.1576,73.8754 -28.9157,69.2617 l -0.6016,-1.092 c -29.0134,-7.2061 -50.4538,-44.5239 -50.3246,-73.9568 0.3284,-22.01 12.9274,-35.9788 25.4042,-41.6931 3.6626,-1.5065 7.7822,-2.3666 12.058,-2.4783 z m -168.8843,29.7201 c 1.286,12.6328 4.2603,26.2193 9.2789,41.0195 4.0783,11.8448 8.8506,23.6073 16.4196,35.6444 -20.6919,6.9179 -47.8835,11.9788 -50.3573,6.4083 -2.4105,-6.8693 14.7747,-54.9721 23.3379,-79.5215 0.4256,-1.1818 0.889,-2.3684 1.3209,-3.5507 z m -1018.4721,35.494 c 30,2 40.9998,30.0007 26.9998,70.0007 -14,39.9999 -46.9984,72.9955 -78.9984,72.9955 -32,0 -46.0022,-37.998 -32.0022,-77.9979 14,-40 54.0009,-64.9978 84.0008,-63.9978 z m -410.9997,69.0002 c 21,1 15.001,50.9943 2.001,83.9943 -5,10.9999 -12.0021,22.0002 -18.0021,28.0002 -17.9999,20 -40.9991,18.0033 -52.9991,7.0034 -10,-10 -16.9977,-28.9992 -8.9977,-52.9991 11,-32 45.9975,-65.9983 76.9974,-64.9983 z"
             transform="translate(-1.3444725e-5,-1.2653858e-5)" />
        </g>
      </g>
      <path
         style="display:inline;fill:#00a451;fill-opacity:1;stroke-width:0.43603"
         d="m -374.3748,-10.709398 c -1.9e-4,-3.72093 8.7e-4,-10.128965 0,-14.089787 l -8.1e-4,-6.997805 2.61885,-2.946761 c 10.0348,-11.00372 28.35404,-21.81266 43.45817,-25.6417 9.73259,-2.4673 3.76762,-2.29435 88.85558,-2.57652 l 73.6317,-0.2442 c 15.94703,0.45515 32.95584,-7.00425 43.29072,-14.80938 4.94597,-3.94595 8.71644,-8.54687 12.67801,-13.25683 0.061,1.91144 0.015,3.50473 0.0313,5.37879 0.0376,4.34657 -0.0155,8.87979 -0.0208,13.08025 -0.13451,3.16092 0.1042,6.06558 -0.0204,9.09662 -0.12554,0.21157 -0.50328,0.52103 -0.77686,0.81045 -0.95891,1.01445 -2.62138,2.38053 -3.54454,3.21095 -13.38849,12.01785 -30.7533,20.81742 -48.3288,20.93466 -51.51225,0.40003 -109.7941,-0.59188 -154.34543,-0.65092 -3.85166,-0.12738 -7.02268,0.6732 -10.31472,1.75451 -16.45311,5.416661 -31.39478,16.106928 -45.16369,32.3050012 l -2.05473,2.1290764 c 0.0133,-2.4586384 0.006,-5.1570349 0.006,-7.4864256 z"
         id="path123"
         inkscape:connector-curvature="0"
         sodipodi:nodetypes="ccccsscccsccscccccccc" />
    </g>
  </g>
</svg>
